# xmcd
#
# Track frame offsets:
#	150
#	18299
#	43874
#	64124
#	79648
#	104623
#	119548
#
# Disc length: 1965 seconds
#
# Revision: 0
# Processed by: cddbd v1.5.2PL0 Copyright (c) Steve Scherf et al.
# Submitted via: EasyCDDAExtractor 16.0.5.1
#
DISCID=5807ab07
DTITLE=FM 1960
DYEAR=1900
DGENRE=
TTITLE0=Somewhere Down in California
TTITLE1=Black Widow
TTITLE2=Tried to Keep Her
TTITLE3=Mean Mr. Greene
TTITLE4=Sweet Sensamilla
TTITLE5=Home Alive
TTITLE6=Lost
EXTD=
EXTT0=
EXTT1=
EXTT2=
EXTT3=
EXTT4=
EXTT5=
EXTT6=
PLAYORDER=
